<svg xmlns="http://www.w3.org/2000/svg" xmlns:xlink="http://www.w3.org/1999/xlink" width="500" zoomAndPan="magnify" viewBox="0 0 375 374.999991" height="500" preserveAspectRatio="xMidYMid meet" version="1.0"><defs><clipPath id="d272219068"><path d="M 61.394531 43.59375 L 331.300781 43.59375 L 331.300781 77.730469 L 61.394531 77.730469 Z M 61.394531 43.59375 " clip-rule="nonzero"/></clipPath><clipPath id="706b6579fc"><path d="M 78.464844 43.59375 L 314.210938 43.59375 C 323.640625 43.59375 331.28125 51.234375 331.28125 60.660156 C 331.28125 70.089844 323.640625 77.730469 314.210938 77.730469 L 78.464844 77.730469 C 69.035156 77.730469 61.394531 70.089844 61.394531 60.660156 C 61.394531 51.234375 69.035156 43.59375 78.464844 43.59375 Z M 78.464844 43.59375 " clip-rule="nonzero"/></clipPath><clipPath id="a57ce5adad"><path d="M 105.375 94.789062 L 361.144531 94.789062 L 361.144531 128.925781 L 105.375 128.925781 Z M 105.375 94.789062 " clip-rule="nonzero"/></clipPath><clipPath id="30568e653f"><path d="M 122.445312 94.789062 L 344.046875 94.789062 C 353.472656 94.789062 361.117188 102.429688 361.117188 111.855469 C 361.117188 121.285156 353.472656 128.925781 344.046875 128.925781 L 122.445312 128.925781 C 113.015625 128.925781 105.375 121.285156 105.375 111.855469 C 105.375 102.429688 113.015625 94.789062 122.445312 94.789062 Z M 122.445312 94.789062 " clip-rule="nonzero"/></clipPath><clipPath id="769d153f9d"><path d="M 61.394531 146.0625 L 291.296875 146.0625 L 291.296875 180.203125 L 61.394531 180.203125 Z M 61.394531 146.0625 " clip-rule="nonzero"/></clipPath><clipPath id="0aa43263a5"><path d="M 78.464844 146.0625 L 274.132812 146.0625 C 283.5625 146.0625 291.203125 153.707031 291.203125 163.132812 C 291.203125 172.558594 283.5625 180.203125 274.132812 180.203125 L 78.464844 180.203125 C 69.035156 180.203125 61.394531 172.558594 61.394531 163.132812 C 61.394531 153.707031 69.035156 146.0625 78.464844 146.0625 Z M 78.464844 146.0625 " clip-rule="nonzero"/></clipPath><clipPath id="4a7a11541f"><path d="M 298.746094 146.0625 L 375 146.0625 L 375 180.203125 L 298.746094 180.203125 Z M 298.746094 146.0625 " clip-rule="nonzero"/></clipPath><clipPath id="529fb4c219"><path d="M 315.816406 146.0625 L 357.929688 146.0625 C 367.359375 146.0625 375 153.707031 375 163.132812 C 375 172.558594 367.359375 180.203125 357.929688 180.203125 L 315.816406 180.203125 C 306.390625 180.203125 298.746094 172.558594 298.746094 163.132812 C 298.746094 153.707031 306.390625 146.0625 315.816406 146.0625 Z M 315.816406 146.0625 " clip-rule="nonzero"/></clipPath><clipPath id="2b41e22884"><path d="M 85.507812 197.257812 L 150.316406 197.257812 L 150.316406 231.398438 L 85.507812 231.398438 Z M 85.507812 197.257812 " clip-rule="nonzero"/></clipPath><clipPath id="58671f879e"><path d="M 102.578125 197.257812 L 133.238281 197.257812 C 142.664062 197.257812 150.308594 204.902344 150.308594 214.328125 C 150.308594 223.753906 142.664062 231.398438 133.238281 231.398438 L 102.578125 231.398438 C 93.148438 231.398438 85.507812 223.753906 85.507812 214.328125 C 85.507812 204.902344 93.148438 197.257812 102.578125 197.257812 Z M 102.578125 197.257812 " clip-rule="nonzero"/></clipPath><clipPath id="4257c2b987"><path d="M 161.179688 197.175781 L 334.539062 197.175781 L 334.539062 231.316406 L 161.179688 231.316406 Z M 161.179688 197.175781 " clip-rule="nonzero"/></clipPath><clipPath id="3e09b48b22"><path d="M 178.25 197.175781 L 317.34375 197.175781 C 326.769531 197.175781 334.414062 204.820312 334.414062 214.246094 C 334.414062 223.671875 326.769531 231.316406 317.34375 231.316406 L 178.25 231.316406 C 168.820312 231.316406 161.179688 223.671875 161.179688 214.246094 C 161.179688 204.820312 168.820312 197.175781 178.25 197.175781 Z M 178.25 197.175781 " clip-rule="nonzero"/></clipPath><clipPath id="824d9b7f00"><path d="M 110.214844 248.453125 L 365.988281 248.453125 L 365.988281 282.59375 L 110.214844 282.59375 Z M 110.214844 248.453125 " clip-rule="nonzero"/></clipPath><clipPath id="18caa14076"><path d="M 127.285156 248.453125 L 348.886719 248.453125 C 358.316406 248.453125 365.957031 256.09375 365.957031 265.523438 C 365.957031 274.949219 358.316406 282.59375 348.886719 282.59375 L 127.285156 282.59375 C 117.859375 282.59375 110.214844 274.949219 110.214844 265.523438 C 110.214844 256.09375 117.859375 248.453125 127.285156 248.453125 Z M 127.285156 248.453125 " clip-rule="nonzero"/></clipPath><clipPath id="37817e4795"><path d="M 61.394531 299.523438 L 244.621094 299.523438 L 244.621094 333.660156 L 61.394531 333.660156 Z M 61.394531 299.523438 " clip-rule="nonzero"/></clipPath><clipPath id="57f8797841"><path d="M 78.464844 299.523438 L 227.542969 299.523438 C 236.96875 299.523438 244.609375 307.164062 244.609375 316.59375 C 244.609375 326.019531 236.96875 333.660156 227.542969 333.660156 L 78.464844 333.660156 C 69.035156 333.660156 61.394531 326.019531 61.394531 316.59375 C 61.394531 307.164062 69.035156 299.523438 78.464844 299.523438 Z M 78.464844 299.523438 " clip-rule="nonzero"/></clipPath><clipPath id="603e3f1c33"><path d="M 0.160156 14.757812 L 85.328125 14.757812 L 85.328125 360.230469 L 0.160156 360.230469 Z M 0.160156 14.757812 " clip-rule="nonzero"/></clipPath></defs><g clip-path="url(#d272219068)"><g clip-path="url(#706b6579fc)"><path fill="#6bc2cb" d="M 61.394531 43.59375 L 331.300781 43.59375 L 331.300781 77.730469 L 61.394531 77.730469 Z M 61.394531 43.59375 " fill-opacity="1" fill-rule="nonzero"/></g></g><g clip-path="url(#a57ce5adad)"><g clip-path="url(#30568e653f)"><path fill="#6bc2cb" d="M 105.375 94.789062 L 361.144531 94.789062 L 361.144531 128.925781 L 105.375 128.925781 Z M 105.375 94.789062 " fill-opacity="1" fill-rule="nonzero"/></g></g><g clip-path="url(#769d153f9d)"><g clip-path="url(#0aa43263a5)"><path fill="#6bc2cb" d="M 61.394531 146.0625 L 291.160156 146.0625 L 291.160156 180.203125 L 61.394531 180.203125 Z M 61.394531 146.0625 " fill-opacity="1" fill-rule="nonzero"/></g></g><g clip-path="url(#4a7a11541f)"><g clip-path="url(#529fb4c219)"><path fill="#6bc2cb" d="M 298.746094 146.0625 L 375.023438 146.0625 L 375.023438 180.203125 L 298.746094 180.203125 Z M 298.746094 146.0625 " fill-opacity="1" fill-rule="nonzero"/></g></g><g clip-path="url(#2b41e22884)"><g clip-path="url(#58671f879e)"><path fill="#6bc2cb" d="M 85.507812 197.257812 L 150.316406 197.257812 L 150.316406 231.398438 L 85.507812 231.398438 Z M 85.507812 197.257812 " fill-opacity="1" fill-rule="nonzero"/></g></g><g clip-path="url(#4257c2b987)"><g clip-path="url(#3e09b48b22)"><path fill="#6bc2cb" d="M 161.179688 197.175781 L 334.40625 197.175781 L 334.40625 231.316406 L 161.179688 231.316406 Z M 161.179688 197.175781 " fill-opacity="1" fill-rule="nonzero"/></g></g><g clip-path="url(#824d9b7f00)"><g clip-path="url(#18caa14076)"><path fill="#6bc2cb" d="M 110.214844 248.453125 L 365.988281 248.453125 L 365.988281 282.59375 L 110.214844 282.59375 Z M 110.214844 248.453125 " fill-opacity="1" fill-rule="nonzero"/></g></g><g clip-path="url(#37817e4795)"><g clip-path="url(#57f8797841)"><path fill="#6bc2cb" d="M 61.394531 299.523438 L 244.621094 299.523438 L 244.621094 333.660156 L 61.394531 333.660156 Z M 61.394531 299.523438 " fill-opacity="1" fill-rule="nonzero"/></g></g><g clip-path="url(#603e3f1c33)"><path fill="#3b3486" d="M 77.96875 360.230469 L 73.03125 360.230469 C 49.195312 360.230469 29.800781 340.835938 29.800781 317 L 29.800781 225.949219 C 29.800781 215.472656 24.175781 205.691406 15.117188 200.425781 L 3.824219 193.855469 C 1.558594 192.539062 0.160156 190.113281 0.160156 187.492188 C 0.160156 184.871094 1.558594 182.449219 3.824219 181.132812 L 15.117188 174.5625 C 24.175781 169.296875 29.800781 159.515625 29.800781 149.039062 L 29.800781 57.984375 C 29.800781 34.148438 49.195312 14.757812 73.03125 14.757812 L 77.96875 14.757812 C 82.03125 14.757812 85.328125 18.050781 85.328125 22.117188 C 85.328125 26.179688 82.03125 29.476562 77.96875 29.476562 L 73.03125 29.476562 C 57.3125 29.476562 44.523438 42.265625 44.523438 57.984375 L 44.523438 149.039062 C 44.523438 164.738281 36.089844 179.394531 22.519531 187.289062 L 22.164062 187.492188 L 22.519531 187.699219 C 36.089844 195.589844 44.523438 210.246094 44.523438 225.949219 L 44.523438 317 C 44.523438 332.722656 57.3125 345.507812 73.03125 345.507812 L 77.96875 345.507812 C 82.03125 345.507812 85.328125 348.804688 85.328125 352.867188 C 85.328125 356.933594 82.03125 360.230469 77.96875 360.230469 " fill-opacity="1" fill-rule="nonzero"/></g><path stroke-linecap="round" transform="matrix(0.75, 0, 0, 0.75, 70.778153, 14.758079)" fill="none" stroke-linejoin="miter" d="M 9.998922 9.999645 L 190.061434 9.999645 " stroke="#3b3486" stroke-width="20" stroke-opacity="1" stroke-miterlimit="4"/></svg>