<svg xmlns="http://www.w3.org/2000/svg" xmlns:xlink="http://www.w3.org/1999/xlink" width="500" zoomAndPan="magnify" viewBox="0 0 375 149.999998" height="200" preserveAspectRatio="xMidYMid meet" version="1.0"><defs><g/><clipPath id="c58184977b"><path d="M 18.617188 37.5625 L 90.574219 37.5625 L 90.574219 46.664062 L 18.617188 46.664062 Z M 18.617188 37.5625 " clip-rule="nonzero"/></clipPath><clipPath id="742ff3a28b"><path d="M 23.167969 37.5625 L 86.019531 37.5625 C 88.53125 37.5625 90.570312 39.601562 90.570312 42.113281 C 90.570312 44.625 88.53125 46.664062 86.019531 46.664062 L 23.167969 46.664062 C 20.65625 46.664062 18.617188 44.625 18.617188 42.113281 C 18.617188 39.601562 20.65625 37.5625 23.167969 37.5625 Z M 23.167969 37.5625 " clip-rule="nonzero"/></clipPath><clipPath id="9c0ab86de3"><path d="M 30.34375 51.210938 L 98.53125 51.210938 L 98.53125 60.3125 L 30.34375 60.3125 Z M 30.34375 51.210938 " clip-rule="nonzero"/></clipPath><clipPath id="f74a0997e0"><path d="M 34.894531 51.210938 L 93.972656 51.210938 C 96.484375 51.210938 98.523438 53.25 98.523438 55.761719 C 98.523438 58.273438 96.484375 60.3125 93.972656 60.3125 L 34.894531 60.3125 C 32.378906 60.3125 30.34375 58.273438 30.34375 55.761719 C 30.34375 53.25 32.378906 51.210938 34.894531 51.210938 Z M 34.894531 51.210938 " clip-rule="nonzero"/></clipPath><clipPath id="d9e001ea6f"><path d="M 18.617188 64.882812 L 79.910156 64.882812 L 79.910156 73.984375 L 18.617188 73.984375 Z M 18.617188 64.882812 " clip-rule="nonzero"/></clipPath><clipPath id="44ad2947e1"><path d="M 23.167969 64.882812 L 75.332031 64.882812 C 77.847656 64.882812 79.882812 66.917969 79.882812 69.433594 C 79.882812 71.945312 77.847656 73.984375 75.332031 73.984375 L 23.167969 73.984375 C 20.65625 73.984375 18.617188 71.945312 18.617188 69.433594 C 18.617188 66.917969 20.65625 64.882812 23.167969 64.882812 Z M 23.167969 64.882812 " clip-rule="nonzero"/></clipPath><clipPath id="d02c51310c"><path d="M 81.894531 64.882812 L 102.230469 64.882812 L 102.230469 73.984375 L 81.894531 73.984375 Z M 81.894531 64.882812 " clip-rule="nonzero"/></clipPath><clipPath id="1febba9123"><path d="M 86.445312 64.882812 L 97.671875 64.882812 C 100.1875 64.882812 102.222656 66.917969 102.222656 69.433594 C 102.222656 71.945312 100.1875 73.984375 97.671875 73.984375 L 86.445312 73.984375 C 83.933594 73.984375 81.894531 71.945312 81.894531 69.433594 C 81.894531 66.917969 83.933594 64.882812 86.445312 64.882812 Z M 86.445312 64.882812 " clip-rule="nonzero"/></clipPath><clipPath id="5ef4c9518f"><path d="M 25.046875 78.53125 L 42.324219 78.53125 L 42.324219 87.632812 L 25.046875 87.632812 Z M 25.046875 78.53125 " clip-rule="nonzero"/></clipPath><clipPath id="830471ea27"><path d="M 29.597656 78.53125 L 37.769531 78.53125 C 40.285156 78.53125 42.320312 80.566406 42.320312 83.082031 C 42.320312 85.59375 40.285156 87.632812 37.769531 87.632812 L 29.597656 87.632812 C 27.082031 87.632812 25.046875 85.59375 25.046875 83.082031 C 25.046875 80.566406 27.082031 78.53125 29.597656 78.53125 Z M 29.597656 78.53125 " clip-rule="nonzero"/></clipPath><clipPath id="7187462195"><path d="M 45.21875 78.507812 L 91.4375 78.507812 L 91.4375 87.609375 L 45.21875 87.609375 Z M 45.21875 78.507812 " clip-rule="nonzero"/></clipPath><clipPath id="778b12705d"><path d="M 49.769531 78.507812 L 86.851562 78.507812 C 89.367188 78.507812 91.402344 80.546875 91.402344 83.058594 C 91.402344 85.570312 89.367188 87.609375 86.851562 87.609375 L 49.769531 87.609375 C 47.257812 87.609375 45.21875 85.570312 45.21875 83.058594 C 45.21875 80.546875 47.257812 78.507812 49.769531 78.507812 Z M 49.769531 78.507812 " clip-rule="nonzero"/></clipPath><clipPath id="94f5fcb434"><path d="M 31.632812 92.179688 L 99.820312 92.179688 L 99.820312 101.28125 L 31.632812 101.28125 Z M 31.632812 92.179688 " clip-rule="nonzero"/></clipPath><clipPath id="a28b36241e"><path d="M 36.183594 92.179688 L 95.261719 92.179688 C 97.777344 92.179688 99.8125 94.214844 99.8125 96.730469 C 99.8125 99.242188 97.777344 101.28125 95.261719 101.28125 L 36.183594 101.28125 C 33.671875 101.28125 31.632812 99.242188 31.632812 96.730469 C 31.632812 94.214844 33.671875 92.179688 36.183594 92.179688 Z M 36.183594 92.179688 " clip-rule="nonzero"/></clipPath><clipPath id="23940bd4f2"><path d="M 18.617188 105.792969 L 67.464844 105.792969 L 67.464844 114.894531 L 18.617188 114.894531 Z M 18.617188 105.792969 " clip-rule="nonzero"/></clipPath><clipPath id="616627bf14"><path d="M 23.167969 105.792969 L 62.910156 105.792969 C 65.425781 105.792969 67.460938 107.832031 67.460938 110.34375 C 67.460938 112.855469 65.425781 114.894531 62.910156 114.894531 L 23.167969 114.894531 C 20.65625 114.894531 18.617188 112.855469 18.617188 110.34375 C 18.617188 107.832031 20.65625 105.792969 23.167969 105.792969 Z M 23.167969 105.792969 " clip-rule="nonzero"/></clipPath><clipPath id="39e0bba5eb"><path d="M 2.292969 29.875 L 25 29.875 L 25 121.976562 L 2.292969 121.976562 Z M 2.292969 29.875 " clip-rule="nonzero"/></clipPath></defs><g fill="#3b3486" fill-opacity="1"><g transform="translate(102.42227, 98.541303)"><g><path d="M 61.578125 0 L 46.3125 0 L 20.796875 -38.640625 L 20.796875 0 L 5.53125 0 L 5.53125 -62.640625 L 20.796875 -62.640625 L 46.3125 -23.828125 L 46.3125 -62.640625 L 61.578125 -62.640625 Z M 61.578125 0 "/></g></g></g><g fill="#3b3486" fill-opacity="1"><g transform="translate(169.510784, 98.541303)"><g><path d="M 35.15625 0.625 C 29.269531 0.625 23.867188 -0.738281 18.953125 -3.46875 C 14.046875 -6.207031 10.148438 -10.03125 7.265625 -14.9375 C 4.378906 -19.851562 2.9375 -25.375 2.9375 -31.5 C 2.9375 -37.625 4.378906 -43.125 7.265625 -48 C 10.148438 -52.882812 14.046875 -56.691406 18.953125 -59.421875 C 23.867188 -62.160156 29.269531 -63.53125 35.15625 -63.53125 C 41.050781 -63.53125 46.453125 -62.160156 51.359375 -59.421875 C 56.265625 -56.691406 60.128906 -52.882812 62.953125 -48 C 65.773438 -43.125 67.1875 -37.625 67.1875 -31.5 C 67.1875 -25.375 65.757812 -19.851562 62.90625 -14.9375 C 60.050781 -10.03125 56.1875 -6.207031 51.3125 -3.46875 C 46.4375 -0.738281 41.050781 0.625 35.15625 0.625 Z M 35.15625 -13.296875 C 40.15625 -13.296875 44.15625 -14.960938 47.15625 -18.296875 C 50.164062 -21.628906 51.671875 -26.03125 51.671875 -31.5 C 51.671875 -37.03125 50.164062 -41.445312 47.15625 -44.75 C 44.15625 -48.050781 40.15625 -49.703125 35.15625 -49.703125 C 30.101562 -49.703125 26.070312 -48.066406 23.0625 -44.796875 C 20.0625 -41.523438 18.5625 -37.09375 18.5625 -31.5 C 18.5625 -25.96875 20.0625 -21.550781 23.0625 -18.25 C 26.070312 -14.945312 30.101562 -13.296875 35.15625 -13.296875 Z M 35.15625 -13.296875 "/></g></g></g><g fill="#3b3486" fill-opacity="1"><g transform="translate(239.63257, 98.541303)"><g><path d="M 64.34375 -62.640625 L 42.125 0 L 23.015625 0 L 0.796875 -62.640625 L 17.046875 -62.640625 L 32.578125 -15.34375 L 48.1875 -62.640625 Z M 64.34375 -62.640625 "/></g></g></g><g fill="#3b3486" fill-opacity="1"><g transform="translate(304.758395, 98.541303)"><g><path d="M 44.53125 -11.0625 L 21.15625 -11.0625 L 17.40625 0 L 1.421875 0 L 24.09375 -62.640625 L 41.765625 -62.640625 L 64.421875 0 L 48.28125 0 Z M 40.609375 -22.84375 L 32.84375 -45.78125 L 25.171875 -22.84375 Z M 40.609375 -22.84375 "/></g></g></g><g fill="#6bc2cb" fill-opacity="1"><g transform="translate(107.350586, 118.218239)"><g><path d="M 6.921875 -9.546875 L 6.921875 -8.53125 L 4.328125 -8.53125 L 4.328125 0 L 3.078125 0 L 3.078125 -8.53125 L 0.46875 -8.53125 L 0.46875 -9.546875 Z M 6.921875 -9.546875 "/></g></g></g><g fill="#6bc2cb" fill-opacity="1"><g transform="translate(116.557164, 118.218239)"><g><path d="M 8.40625 -9.546875 L 8.40625 0 L 7.15625 0 L 7.15625 -4.328125 L 2.296875 -4.328125 L 2.296875 0 L 1.046875 0 L 1.046875 -9.546875 L 2.296875 -9.546875 L 2.296875 -5.359375 L 7.15625 -5.359375 L 7.15625 -9.546875 Z M 8.40625 -9.546875 "/></g></g></g><g fill="#6bc2cb" fill-opacity="1"><g transform="translate(127.829318, 118.218239)"><g><path d="M 2.296875 -8.53125 L 2.296875 -5.34375 L 5.78125 -5.34375 L 5.78125 -4.3125 L 2.296875 -4.3125 L 2.296875 -1.03125 L 6.1875 -1.03125 L 6.1875 0 L 1.046875 0 L 1.046875 -9.546875 L 6.1875 -9.546875 L 6.1875 -8.53125 Z M 2.296875 -8.53125 "/></g></g></g><g fill="#6bc2cb" fill-opacity="1"><g transform="translate(136.65288, 118.218239)"><g/></g></g><g fill="#6bc2cb" fill-opacity="1"><g transform="translate(142.111335, 118.218239)"><g><path d="M 7.4375 -6.75 C 7.4375 -5.957031 7.160156 -5.296875 6.609375 -4.765625 C 6.066406 -4.242188 5.242188 -3.984375 4.140625 -3.984375 L 2.296875 -3.984375 L 2.296875 0 L 1.046875 0 L 1.046875 -9.546875 L 4.140625 -9.546875 C 5.210938 -9.546875 6.03125 -9.285156 6.59375 -8.765625 C 7.15625 -8.242188 7.4375 -7.570312 7.4375 -6.75 Z M 4.140625 -5.015625 C 4.828125 -5.015625 5.332031 -5.160156 5.65625 -5.453125 C 5.988281 -5.753906 6.15625 -6.1875 6.15625 -6.75 C 6.15625 -7.925781 5.484375 -8.515625 4.140625 -8.515625 L 2.296875 -8.515625 L 2.296875 -5.015625 Z M 4.140625 -5.015625 "/></g></g></g><g fill="#6bc2cb" fill-opacity="1"><g transform="translate(151.837727, 118.218239)"><g><path d="M 6.078125 0 L 3.8125 -3.90625 L 2.296875 -3.90625 L 2.296875 0 L 1.046875 0 L 1.046875 -9.546875 L 4.140625 -9.546875 C 4.859375 -9.546875 5.460938 -9.421875 5.953125 -9.171875 C 6.453125 -8.921875 6.828125 -8.585938 7.078125 -8.171875 C 7.328125 -7.753906 7.453125 -7.273438 7.453125 -6.734375 C 7.453125 -6.078125 7.257812 -5.5 6.875 -5 C 6.5 -4.5 5.929688 -4.164062 5.171875 -4 L 7.5625 0 Z M 2.296875 -4.90625 L 4.140625 -4.90625 C 4.804688 -4.90625 5.304688 -5.070312 5.640625 -5.40625 C 5.984375 -5.738281 6.15625 -6.179688 6.15625 -6.734375 C 6.15625 -7.296875 5.988281 -7.734375 5.65625 -8.046875 C 5.320312 -8.359375 4.816406 -8.515625 4.140625 -8.515625 L 2.296875 -8.515625 Z M 2.296875 -4.90625 "/></g></g></g><g fill="#6bc2cb" fill-opacity="1"><g transform="translate(161.960822, 118.218239)"><g><path d="M 5.375 0.09375 C 4.488281 0.09375 3.679688 -0.113281 2.953125 -0.53125 C 2.222656 -0.945312 1.644531 -1.523438 1.21875 -2.265625 C 0.800781 -3.003906 0.59375 -3.84375 0.59375 -4.78125 C 0.59375 -5.707031 0.800781 -6.539062 1.21875 -7.28125 C 1.644531 -8.03125 2.222656 -8.613281 2.953125 -9.03125 C 3.679688 -9.445312 4.488281 -9.65625 5.375 -9.65625 C 6.269531 -9.65625 7.082031 -9.445312 7.8125 -9.03125 C 8.539062 -8.613281 9.113281 -8.035156 9.53125 -7.296875 C 9.957031 -6.554688 10.171875 -5.71875 10.171875 -4.78125 C 10.171875 -3.832031 9.957031 -2.988281 9.53125 -2.25 C 9.113281 -1.519531 8.539062 -0.945312 7.8125 -0.53125 C 7.082031 -0.113281 6.269531 0.09375 5.375 0.09375 Z M 5.375 -0.984375 C 6.039062 -0.984375 6.640625 -1.140625 7.171875 -1.453125 C 7.710938 -1.765625 8.132812 -2.207031 8.4375 -2.78125 C 8.738281 -3.351562 8.890625 -4.019531 8.890625 -4.78125 C 8.890625 -5.539062 8.738281 -6.207031 8.4375 -6.78125 C 8.132812 -7.351562 7.71875 -7.789062 7.1875 -8.09375 C 6.65625 -8.40625 6.050781 -8.5625 5.375 -8.5625 C 4.695312 -8.5625 4.09375 -8.40625 3.5625 -8.09375 C 3.039062 -7.789062 2.625 -7.351562 2.3125 -6.78125 C 2.007812 -6.207031 1.859375 -5.539062 1.859375 -4.78125 C 1.859375 -4.019531 2.007812 -3.351562 2.3125 -2.78125 C 2.625 -2.207031 3.046875 -1.765625 3.578125 -1.453125 C 4.109375 -1.140625 4.707031 -0.984375 5.375 -0.984375 Z M 5.375 -0.984375 "/></g></g></g><g fill="#6bc2cb" fill-opacity="1"><g transform="translate(174.518825, 118.218239)"><g><path d="M 10.734375 -9.46875 L 10.734375 0 L 9.484375 0 L 9.484375 -7.0625 L 6.34375 0 L 5.46875 0 L 2.296875 -7.078125 L 2.296875 0 L 1.046875 0 L 1.046875 -9.46875 L 2.390625 -9.46875 L 5.90625 -1.640625 L 9.40625 -9.46875 Z M 10.734375 -9.46875 "/></g></g></g><g fill="#6bc2cb" fill-opacity="1"><g transform="translate(188.10277, 118.218239)"><g><path d="M 7.4375 -6.75 C 7.4375 -5.957031 7.160156 -5.296875 6.609375 -4.765625 C 6.066406 -4.242188 5.242188 -3.984375 4.140625 -3.984375 L 2.296875 -3.984375 L 2.296875 0 L 1.046875 0 L 1.046875 -9.546875 L 4.140625 -9.546875 C 5.210938 -9.546875 6.03125 -9.285156 6.59375 -8.765625 C 7.15625 -8.242188 7.4375 -7.570312 7.4375 -6.75 Z M 4.140625 -5.015625 C 4.828125 -5.015625 5.332031 -5.160156 5.65625 -5.453125 C 5.988281 -5.753906 6.15625 -6.1875 6.15625 -6.75 C 6.15625 -7.925781 5.484375 -8.515625 4.140625 -8.515625 L 2.296875 -8.515625 L 2.296875 -5.015625 Z M 4.140625 -5.015625 "/></g></g></g><g fill="#6bc2cb" fill-opacity="1"><g transform="translate(197.829164, 118.218239)"><g><path d="M 6.921875 -9.546875 L 6.921875 -8.53125 L 4.328125 -8.53125 L 4.328125 0 L 3.078125 0 L 3.078125 -8.53125 L 0.46875 -8.53125 L 0.46875 -9.546875 Z M 6.921875 -9.546875 "/></g></g></g><g fill="#6bc2cb" fill-opacity="1"><g transform="translate(207.035741, 118.218239)"><g/></g></g><g fill="#6bc2cb" fill-opacity="1"><g transform="translate(212.494196, 118.218239)"><g><path d="M 7.4375 -6.75 C 7.4375 -5.957031 7.160156 -5.296875 6.609375 -4.765625 C 6.066406 -4.242188 5.242188 -3.984375 4.140625 -3.984375 L 2.296875 -3.984375 L 2.296875 0 L 1.046875 0 L 1.046875 -9.546875 L 4.140625 -9.546875 C 5.210938 -9.546875 6.03125 -9.285156 6.59375 -8.765625 C 7.15625 -8.242188 7.4375 -7.570312 7.4375 -6.75 Z M 4.140625 -5.015625 C 4.828125 -5.015625 5.332031 -5.160156 5.65625 -5.453125 C 5.988281 -5.753906 6.15625 -6.1875 6.15625 -6.75 C 6.15625 -7.925781 5.484375 -8.515625 4.140625 -8.515625 L 2.296875 -8.515625 L 2.296875 -5.015625 Z M 4.140625 -5.015625 "/></g></g></g><g fill="#6bc2cb" fill-opacity="1"><g transform="translate(222.220585, 118.218239)"><g><path d="M 6.6875 -2.125 L 2.53125 -2.125 L 1.765625 0 L 0.453125 0 L 3.90625 -9.484375 L 5.34375 -9.484375 L 8.78125 0 L 7.453125 0 Z M 6.34375 -3.140625 L 4.609375 -7.953125 L 2.890625 -3.140625 Z M 6.34375 -3.140625 "/></g></g></g><g fill="#6bc2cb" fill-opacity="1"><g transform="translate(233.246507, 118.218239)"><g><path d="M 6.921875 -9.546875 L 6.921875 -8.53125 L 4.328125 -8.53125 L 4.328125 0 L 3.078125 0 L 3.078125 -8.53125 L 0.46875 -8.53125 L 0.46875 -9.546875 Z M 6.921875 -9.546875 "/></g></g></g><g fill="#6bc2cb" fill-opacity="1"><g transform="translate(242.453085, 118.218239)"><g><path d="M 6.921875 -9.546875 L 6.921875 -8.53125 L 4.328125 -8.53125 L 4.328125 0 L 3.078125 0 L 3.078125 -8.53125 L 0.46875 -8.53125 L 0.46875 -9.546875 Z M 6.921875 -9.546875 "/></g></g></g><g fill="#6bc2cb" fill-opacity="1"><g transform="translate(251.659663, 118.218239)"><g><path d="M 2.296875 -8.53125 L 2.296875 -5.34375 L 5.78125 -5.34375 L 5.78125 -4.3125 L 2.296875 -4.3125 L 2.296875 -1.03125 L 6.1875 -1.03125 L 6.1875 0 L 1.046875 0 L 1.046875 -9.546875 L 6.1875 -9.546875 L 6.1875 -8.53125 Z M 2.296875 -8.53125 "/></g></g></g><g fill="#6bc2cb" fill-opacity="1"><g transform="translate(260.483225, 118.218239)"><g><path d="M 6.078125 0 L 3.8125 -3.90625 L 2.296875 -3.90625 L 2.296875 0 L 1.046875 0 L 1.046875 -9.546875 L 4.140625 -9.546875 C 4.859375 -9.546875 5.460938 -9.421875 5.953125 -9.171875 C 6.453125 -8.921875 6.828125 -8.585938 7.078125 -8.171875 C 7.328125 -7.753906 7.453125 -7.273438 7.453125 -6.734375 C 7.453125 -6.078125 7.257812 -5.5 6.875 -5 C 6.5 -4.5 5.929688 -4.164062 5.171875 -4 L 7.5625 0 Z M 2.296875 -4.90625 L 4.140625 -4.90625 C 4.804688 -4.90625 5.304688 -5.070312 5.640625 -5.40625 C 5.984375 -5.738281 6.15625 -6.179688 6.15625 -6.734375 C 6.15625 -7.296875 5.988281 -7.734375 5.65625 -8.046875 C 5.320312 -8.359375 4.816406 -8.515625 4.140625 -8.515625 L 2.296875 -8.515625 Z M 2.296875 -4.90625 "/></g></g></g><g fill="#6bc2cb" fill-opacity="1"><g transform="translate(270.60632, 118.218239)"><g><path d="M 8.5625 0 L 7.3125 0 L 2.296875 -7.59375 L 2.296875 0 L 1.046875 0 L 1.046875 -9.546875 L 2.296875 -9.546875 L 7.3125 -1.96875 L 7.3125 -9.546875 L 8.5625 -9.546875 Z M 8.5625 0 "/></g></g></g><g fill="#6bc2cb" fill-opacity="1"><g transform="translate(282.02894, 118.218239)"><g/></g></g><g fill="#6bc2cb" fill-opacity="1"><g transform="translate(287.487395, 118.218239)"><g><path d="M 10.734375 -9.46875 L 10.734375 0 L 9.484375 0 L 9.484375 -7.0625 L 6.34375 0 L 5.46875 0 L 2.296875 -7.078125 L 2.296875 0 L 1.046875 0 L 1.046875 -9.46875 L 2.390625 -9.46875 L 5.90625 -1.640625 L 9.40625 -9.46875 Z M 10.734375 -9.46875 "/></g></g></g><g fill="#6bc2cb" fill-opacity="1"><g transform="translate(301.071349, 118.218239)"><g><path d="M 6.6875 -2.125 L 2.53125 -2.125 L 1.765625 0 L 0.453125 0 L 3.90625 -9.484375 L 5.34375 -9.484375 L 8.78125 0 L 7.453125 0 Z M 6.34375 -3.140625 L 4.609375 -7.953125 L 2.890625 -3.140625 Z M 6.34375 -3.140625 "/></g></g></g><g fill="#6bc2cb" fill-opacity="1"><g transform="translate(312.097281, 118.218239)"><g><path d="M 6.921875 -9.546875 L 6.921875 -8.53125 L 4.328125 -8.53125 L 4.328125 0 L 3.078125 0 L 3.078125 -8.53125 L 0.46875 -8.53125 L 0.46875 -9.546875 Z M 6.921875 -9.546875 "/></g></g></g><g fill="#6bc2cb" fill-opacity="1"><g transform="translate(321.303858, 118.218239)"><g><path d="M 0.59375 -4.78125 C 0.59375 -5.707031 0.800781 -6.539062 1.21875 -7.28125 C 1.632812 -8.03125 2.207031 -8.613281 2.9375 -9.03125 C 3.664062 -9.445312 4.472656 -9.65625 5.359375 -9.65625 C 6.390625 -9.65625 7.289062 -9.40625 8.0625 -8.90625 C 8.84375 -8.40625 9.410156 -7.695312 9.765625 -6.78125 L 8.28125 -6.78125 C 8.019531 -7.351562 7.640625 -7.789062 7.140625 -8.09375 C 6.640625 -8.40625 6.046875 -8.5625 5.359375 -8.5625 C 4.691406 -8.5625 4.09375 -8.40625 3.5625 -8.09375 C 3.03125 -7.789062 2.613281 -7.351562 2.3125 -6.78125 C 2.007812 -6.207031 1.859375 -5.539062 1.859375 -4.78125 C 1.859375 -4.019531 2.007812 -3.351562 2.3125 -2.78125 C 2.613281 -2.21875 3.03125 -1.78125 3.5625 -1.46875 C 4.09375 -1.15625 4.691406 -1 5.359375 -1 C 6.046875 -1 6.640625 -1.148438 7.140625 -1.453125 C 7.640625 -1.765625 8.019531 -2.207031 8.28125 -2.78125 L 9.765625 -2.78125 C 9.410156 -1.863281 8.84375 -1.15625 8.0625 -0.65625 C 7.289062 -0.164062 6.390625 0.078125 5.359375 0.078125 C 4.472656 0.078125 3.664062 -0.125 2.9375 -0.53125 C 2.207031 -0.945312 1.632812 -1.523438 1.21875 -2.265625 C 0.800781 -3.003906 0.59375 -3.84375 0.59375 -4.78125 Z M 0.59375 -4.78125 "/></g></g></g><g fill="#6bc2cb" fill-opacity="1"><g transform="translate(333.670349, 118.218239)"><g><path d="M 8.40625 -9.546875 L 8.40625 0 L 7.15625 0 L 7.15625 -4.328125 L 2.296875 -4.328125 L 2.296875 0 L 1.046875 0 L 1.046875 -9.546875 L 2.296875 -9.546875 L 2.296875 -5.359375 L 7.15625 -5.359375 L 7.15625 -9.546875 Z M 8.40625 -9.546875 "/></g></g></g><g fill="#6bc2cb" fill-opacity="1"><g transform="translate(344.94251, 118.218239)"><g><path d="M 2.296875 -9.546875 L 2.296875 0 L 1.046875 0 L 1.046875 -9.546875 Z M 2.296875 -9.546875 "/></g></g></g><g fill="#6bc2cb" fill-opacity="1"><g transform="translate(350.113711, 118.218239)"><g><path d="M 8.5625 0 L 7.3125 0 L 2.296875 -7.59375 L 2.296875 0 L 1.046875 0 L 1.046875 -9.546875 L 2.296875 -9.546875 L 7.3125 -1.96875 L 7.3125 -9.546875 L 8.5625 -9.546875 Z M 8.5625 0 "/></g></g></g><g fill="#6bc2cb" fill-opacity="1"><g transform="translate(361.53633, 118.218239)"><g><path d="M 8.28125 -6.78125 C 8.019531 -7.332031 7.632812 -7.757812 7.125 -8.0625 C 6.625 -8.375 6.039062 -8.53125 5.375 -8.53125 C 4.707031 -8.53125 4.109375 -8.375 3.578125 -8.0625 C 3.046875 -7.757812 2.625 -7.320312 2.3125 -6.75 C 2.007812 -6.1875 1.859375 -5.53125 1.859375 -4.78125 C 1.859375 -4.03125 2.007812 -3.367188 2.3125 -2.796875 C 2.625 -2.234375 3.046875 -1.800781 3.578125 -1.5 C 4.109375 -1.195312 4.707031 -1.046875 5.375 -1.046875 C 6.3125 -1.046875 7.078125 -1.320312 7.671875 -1.875 C 8.273438 -2.425781 8.628906 -3.179688 8.734375 -4.140625 L 4.921875 -4.140625 L 4.921875 -5.140625 L 10.0625 -5.140625 L 10.0625 -4.1875 C 9.988281 -3.40625 9.738281 -2.6875 9.3125 -2.03125 C 8.894531 -1.375 8.34375 -0.859375 7.65625 -0.484375 C 6.976562 -0.109375 6.21875 0.078125 5.375 0.078125 C 4.488281 0.078125 3.679688 -0.125 2.953125 -0.53125 C 2.222656 -0.945312 1.644531 -1.523438 1.21875 -2.265625 C 0.800781 -3.003906 0.59375 -3.84375 0.59375 -4.78125 C 0.59375 -5.707031 0.800781 -6.539062 1.21875 -7.28125 C 1.644531 -8.03125 2.222656 -8.613281 2.953125 -9.03125 C 3.679688 -9.445312 4.488281 -9.65625 5.375 -9.65625 C 6.394531 -9.65625 7.289062 -9.398438 8.0625 -8.890625 C 8.84375 -8.390625 9.410156 -7.6875 9.765625 -6.78125 Z M 8.28125 -6.78125 "/></g></g></g><g clip-path="url(#c58184977b)"><g clip-path="url(#742ff3a28b)"><path fill="#6bc2cb" d="M 18.617188 37.5625 L 90.574219 37.5625 L 90.574219 46.664062 L 18.617188 46.664062 Z M 18.617188 37.5625 " fill-opacity="1" fill-rule="nonzero"/></g></g><g clip-path="url(#9c0ab86de3)"><g clip-path="url(#f74a0997e0)"><path fill="#6bc2cb" d="M 30.34375 51.210938 L 98.53125 51.210938 L 98.53125 60.3125 L 30.34375 60.3125 Z M 30.34375 51.210938 " fill-opacity="1" fill-rule="nonzero"/></g></g><g clip-path="url(#d9e001ea6f)"><g clip-path="url(#44ad2947e1)"><path fill="#6bc2cb" d="M 18.617188 64.882812 L 79.875 64.882812 L 79.875 73.984375 L 18.617188 73.984375 Z M 18.617188 64.882812 " fill-opacity="1" fill-rule="nonzero"/></g></g><g clip-path="url(#d02c51310c)"><g clip-path="url(#1febba9123)"><path fill="#6bc2cb" d="M 81.894531 64.882812 L 102.230469 64.882812 L 102.230469 73.984375 L 81.894531 73.984375 Z M 81.894531 64.882812 " fill-opacity="1" fill-rule="nonzero"/></g></g><g clip-path="url(#5ef4c9518f)"><g clip-path="url(#830471ea27)"><path fill="#6bc2cb" d="M 25.046875 78.53125 L 42.324219 78.53125 L 42.324219 87.632812 L 25.046875 87.632812 Z M 25.046875 78.53125 " fill-opacity="1" fill-rule="nonzero"/></g></g><g clip-path="url(#7187462195)"><g clip-path="url(#778b12705d)"><path fill="#6bc2cb" d="M 45.21875 78.507812 L 91.402344 78.507812 L 91.402344 87.609375 L 45.21875 87.609375 Z M 45.21875 78.507812 " fill-opacity="1" fill-rule="nonzero"/></g></g><g clip-path="url(#94f5fcb434)"><g clip-path="url(#a28b36241e)"><path fill="#6bc2cb" d="M 31.632812 92.179688 L 99.820312 92.179688 L 99.820312 101.28125 L 31.632812 101.28125 Z M 31.632812 92.179688 " fill-opacity="1" fill-rule="nonzero"/></g></g><g clip-path="url(#23940bd4f2)"><g clip-path="url(#616627bf14)"><path fill="#6bc2cb" d="M 18.617188 105.792969 L 67.464844 105.792969 L 67.464844 114.894531 L 18.617188 114.894531 Z M 18.617188 105.792969 " fill-opacity="1" fill-rule="nonzero"/></g></g><g clip-path="url(#39e0bba5eb)"><path fill="#3b3486" d="M 23.035156 121.976562 L 21.71875 121.976562 C 15.363281 121.976562 10.195312 116.808594 10.195312 110.453125 L 10.195312 86.179688 C 10.195312 83.386719 8.695312 80.777344 6.28125 79.375 L 3.269531 77.621094 C 2.664062 77.273438 2.292969 76.625 2.292969 75.925781 C 2.292969 75.226562 2.664062 74.582031 3.269531 74.230469 L 6.28125 72.480469 C 8.695312 71.074219 10.195312 68.46875 10.195312 65.675781 L 10.195312 41.398438 C 10.195312 35.046875 15.363281 29.875 21.71875 29.875 L 23.035156 29.875 C 24.121094 29.875 25 30.753906 25 31.835938 C 25 32.921875 24.121094 33.800781 23.035156 33.800781 L 21.71875 33.800781 C 17.527344 33.800781 14.121094 37.210938 14.121094 41.398438 L 14.121094 65.675781 C 14.121094 69.859375 11.871094 73.765625 8.253906 75.871094 L 8.160156 75.925781 L 8.253906 75.980469 C 11.871094 78.085938 14.121094 81.992188 14.121094 86.179688 L 14.121094 110.453125 C 14.121094 114.644531 17.527344 118.054688 21.71875 118.054688 L 23.035156 118.054688 C 24.121094 118.054688 25 118.933594 25 120.015625 C 25 121.097656 24.121094 121.976562 23.035156 121.976562 " fill-opacity="1" fill-rule="nonzero"/></g><path stroke-linecap="round" transform="matrix(0.678486, 0, 0, 0.678486, 21.119332, 29.839603)" fill="none" stroke-linejoin="miter" d="M 3.002154 2.999911 L 55.957865 2.999911 " stroke="#3b3486" stroke-width="6" stroke-opacity="1" stroke-miterlimit="4"/></svg>